<svg xmlns="http://www.w3.org/2000/svg" viewBox="0 0 48 48"><defs><style>.cls-1{fill:#201602;}</style></defs><title>Asset 42ldpi</title><g id="Layer_2" data-name="Layer 2"><g id="layer_1-2" data-name="layer 1"><path class="cls-1" d="M9,45H1a1,1,0,0,1-1-1V30a1,1,0,0,1,1-1H9a1,1,0,0,1,1,1V44A1,1,0,0,1,9,45ZM2,43H8V31H2Z"/><path class="cls-1" d="M27,48l-.22,0-18-4,.44-2L26.87,46,46,36.38V34.33L33.27,38,32.73,36l14-4a1,1,0,0,1,.87.16,1,1,0,0,1,.4.8v4a1,1,0,0,1-.55.89l-20,10A1,1,0,0,1,27,48Z"/><path class="cls-1" d="M24,42a1,1,0,0,1-.39-.08l-7-3,.78-1.84L24.1,40,32,38.2V36H25a1,1,0,0,1-.64-.23L18.68,31,9.1,32l-.2-2,10-1a1.06,1.06,0,0,1,.74.23L25.36,34H33a1,1,0,0,1,1,1v4a1,1,0,0,1-.78,1l-9,2Z"/><rect class="cls-1" x="4" y="39" width="2" height="2"/><path class="cls-1" d="M22,12H20A12,12,0,0,1,41.26,4.36L39.71,5.64A10,10,0,0,0,22,12Z"/><path class="cls-1" d="M37,28H27a2,2,0,0,1-2-2V23.6a4.07,4.07,0,0,0-1.28-2.92A11.89,11.89,0,0,1,20,12h2a9.9,9.9,0,0,0,3.1,7.23A6.06,6.06,0,0,1,27,23.6V26H37V23.6a6.06,6.06,0,0,1,1.9-4.37A9.9,9.9,0,0,0,42,12c0-.31,0-.62,0-.92l2-.18c0,.36,0,.73,0,1.1a11.89,11.89,0,0,1-3.72,8.68A4.07,4.07,0,0,0,39,23.6V26A2,2,0,0,1,37,28Z"/><rect class="cls-1" x="26" y="30" width="12" height="2"/><rect class="cls-1" x="31" y="20" width="2" height="7"/><path class="cls-1" d="M32,19a1,1,0,0,1-.71-.29l-5-5,1.42-1.42L32,16.59,43.29,5.29l1.42,1.42-12,12A1,1,0,0,1,32,19Z"/></g></g></svg>